# File created by Blade
# Date/Time:  Thu Jan 22 19:24:27 2015
#---------------------------------------------------------
:version 1.10
:name HOM
:units
  mass 1.0
  length 1.000000
  angle deg
:documentation
     Acclaim Skeleton File
:root
   axis xyz
   order TX TY TZ RX RY RZ
   position 0.000000 0.000000 0.000000
   orientation 0 0 0
:bonedata
   begin
      id 1
      name RightUpLeg_dum
      direction -1.000000 0.000000 0.000000
      length 4.478084
      axis 0.0 0.0 0.0 xyz
   end
   begin
      id 2
      name LeftUpLeg_dum
      direction 1.000000 0.000000 0.000000
      length 4.478084
      axis 0.0 0.0 0.0 xyz
   end
   begin
      id 3
      name Spine_dum
      direction 0.000000 1.000000 0.000000
      length 6.068208
      axis 0.0 0.0 0.0 xyz
   end
   begin
      id 4
      name RightUpLeg
      direction 0.000000 -1.000000 0.000000
      length 16.405774
      axis 0.0 0.0 0.0 xyz
      dof rx ry rz
   end
   begin
      id 5
      name RightLeg
      direction 0.000000 -1.000000 0.000000
      length 14.644143
      axis 0.0 0.0 0.0 xyz
      dof rx ry rz
   end
   begin
      id 6
      name RightFoot
      direction 0.000000 -0.258819 0.965926
      length 5.806150
      axis 15.0 0.0 0.0 xyz
      dof rx ry rz
   end
   begin
      id 7
      name RightToeBase
      direction 0.000000 0.000000 1.000000
      length 2.952750
      axis 0.0 0.0 0.0 xyz
      dof rx ry rz
   end
   begin
      id 8
      name LeftUpLeg
      direction 0.000000 -1.000000 0.000000
      length 16.405774
      axis 0.0 0.0 0.0 xyz
      dof rx ry rz
   end
   begin
      id 9
      name LeftLeg
      direction 0.000000 -1.000000 0.000000
      length 14.644143
      axis 0.0 0.0 0.0 xyz
      dof rx ry rz
   end
   begin
      id 10
      name LeftFoot
      direction 0.000000 -0.258819 0.965926
      length 5.806150
      axis 15.0 0.0 0.0 xyz
      dof rx ry rz
   end
   begin
      id 11
      name LeftToeBase
      direction 0.000000 0.000000 1.000000
      length 2.952750
      axis 0.0 0.0 0.0 xyz
      dof rx ry rz
   end
   begin
      id 12
      name Spine
      direction 0.000000 1.000000 0.000000
      length 0.000000
      axis 0.0 0.0 0.0 xyz
      dof rx ry rz
   end
   begin
      id 13
      name Spine_dum1
      direction 0.000000 1.000000 0.000000
      length 10.013923
      axis 0.0 0.0 0.0 xyz
   end
   begin
      id 14
      name Spine_dum2
      direction 0.000000 1.000000 0.000000
      length 10.013923
      axis 0.0 0.0 0.0 xyz
   end
   begin
      id 15
      name Spine_dum3
      direction 0.000000 1.000000 0.000000
      length 15.777476
      axis 0.0 0.0 0.0 xyz
   end
   begin
      id 16
      name RightShoulder
      direction -1.000000 0.000000 0.000000
      length 7.190220
      axis 0.0 0.0 90.0 xyz
      dof rx ry rz
   end
   begin
      id 17
      name RightArm
      direction -1.000000 0.000000 0.000000
      length 10.177469
      axis 0.0 0.0 90.0 xyz
      dof rx ry rz
   end
   begin
      id 18
      name RightForeArm
      direction -1.000000 0.000000 0.000000
      length 8.392114
      axis 0.0 0.0 90.0 xyz
      dof ry rz rx
   end
   begin
      id 19
      name RightHand
      direction -1.000000 0.000000 0.000000
      length 0.000000
      axis 0.0 0.0 90.0 xyz
      dof rx ry rz
   end
   begin
      id 20
      name RightHand_dum1
      direction -1.000000 0.000000 0.000000
      length 3.937000
      axis 0.0 0.0 90.0 xyz
   end
   begin
      id 21
      name RightHand_dum2
      direction 0.000000 0.000000 0.000000
      length 0.000000
      axis 0.0 0.0 90.0 xyz
   end
   begin
      id 22
      name RightHandThumb1
      direction 0.000000 0.000000 1.000000
      length 3.937000
      axis 0.0 0.0 90.0 xyz
      dof rx rz ry
   end
   begin
      id 23
      name LeftShoulder
      direction 1.000000 0.000000 0.000000
      length 7.190220
      axis 0.0 0.0 -90.0 xyz
      dof rx ry rz
   end
   begin
      id 24
      name LeftArm
      direction 1.000000 0.000000 0.000000
      length 10.177469
      axis 0.0 0.0 -90.0 xyz
      dof rx ry rz
   end
   begin
      id 25
      name LeftForeArm
      direction 1.000000 0.000000 0.000000
      length 8.392114
      axis 0.0 0.0 -90.0 xyz
      dof ry rz rx
   end
   begin
      id 26
      name LeftHand
      direction 1.000000 0.000000 0.000000
      length 0.000000
      axis 0.0 0.0 -90.0 xyz
      dof rx ry rz
   end
   begin
      id 27
      name LeftHand_dum1
      direction 1.000000 0.000000 0.000000
      length 3.937000
      axis 0.0 0.0 -90.0 xyz
   end
   begin
      id 28
      name LeftHand_dum2
      direction 0.000000 0.000000 0.000000
      length 0.000000
      axis 0.0 0.0 -90.0 xyz
   end
   begin
      id 29
      name LeftHandThumb1
      direction 0.000000 0.000000 1.000000
      length 3.937000
      axis 0.0 0.0 -90.0 xyz
      dof rx rz ry
   end
   begin
      id 30
      name Head
      direction 0.000000 1.000000 0.000000
      length 4.527550
      axis 0.0 0.0 0.0 xyz
      dof rx ry rz
   end
:hierarchy
   begin
      root RightUpLeg_dum LeftUpLeg_dum Spine_dum
      RightUpLeg_dum RightUpLeg
      LeftUpLeg_dum LeftUpLeg
      Spine_dum Spine
      RightUpLeg RightLeg
      RightLeg RightFoot
      RightFoot RightToeBase
      LeftUpLeg LeftLeg
      LeftLeg LeftFoot
      LeftFoot LeftToeBase
      Spine Spine_dum1 Spine_dum2 Spine_dum3
      Spine_dum1 RightShoulder
      Spine_dum2 LeftShoulder
      Spine_dum3 Head
      RightShoulder RightArm
      RightArm RightForeArm
      RightForeArm RightHand
      RightHand RightHand_dum1 RightHand_dum2
      RightHand_dum2 RightHandThumb1
      LeftShoulder LeftArm
      LeftArm LeftForeArm
      LeftForeArm LeftHand
      LeftHand LeftHand_dum1 LeftHand_dum2
      LeftHand_dum2 LeftHandThumb1
   end

# File created by Blade
# Date/Time:  Thu Jan 22 19:24:19 2015
# Frame Rate: 120.000 fps
#------------------------------------------------------
:FULLY-SPECIFIED
:DEGREES
419
root -4.399344 32.866824 -3.500698 5.899721 -13.445847 0.840632
RightUpLeg -1.307188 7.882277 7.460454
RightLeg 1.992907 -0.000000 -0.000000
RightFoot -9.390783 -1.013491 -6.697824
RightToeBase 2.412363 -0.000000 -0.000000
LeftUpLeg -38.265018 2.351790 -9.090971
LeftLeg 19.786824 -0.000000 -0.000000
LeftFoot -5.644994 5.541110 -17.898941
LeftToeBase -13.385225 -0.000000 0.000000
Spine -3.393626 3.316125 0.941631
RightShoulder -17.285947 -10.046449 -29.243070
RightArm 19.507884 32.469299 40.214174
RightForeArm -14.105752 -0.000000 27.445693
RightHand 11.701915 -0.000000 6.008077
RightHandThumb1 -24.326973 -0.000000 -32.862282
LeftShoulder -23.609153 5.296004 29.460897
LeftArm 14.404049 -29.767497 -40.411965
LeftForeArm 17.239009 -0.000000 3.895123
LeftHand -0.285147 -0.000000 -7.467581
LeftHandThumb1 -26.253704 0.000000 33.147579
Head -1.473613 6.829684 -5.945572
420
root -4.422618 32.858146 -3.491582 5.915720 -13.624193 0.767872
RightUpLeg -1.241680 8.031322 7.543997
RightLeg 1.911117 -0.000000 -0.000000
RightFoot -9.358737 -0.946997 -6.742152
RightToeBase 2.407761 -0.000000 -0.000000
LeftUpLeg -38.098648 2.024955 -9.372906
LeftLeg 20.058339 -0.000000 -0.000000
LeftFoot -5.728382 5.515549 -18.182954
LeftToeBase -13.511117 -0.000000 0.000000
Spine -3.488529 3.474593 1.044921
RightShoulder -17.263056 -10.088751 -29.208738
RightArm 19.570727 32.413332 40.217884
RightForeArm -14.104077 -0.000000 27.429492
RightHand 11.709401 -0.000000 6.043477
RightHandThumb1 -24.326973 -0.000000 -32.862282
LeftShoulder -23.648149 5.394631 29.463469
LeftArm 14.389029 -29.934511 -40.397884
LeftForeArm 17.073345 0.000000 3.971203
LeftHand -0.317159 -0.000000 -7.208621
LeftHandThumb1 -26.253704 0.000000 33.147579
Head -1.361268 6.779030 -5.947513
421
root -4.443152 32.849044 -3.487603 5.942023 -13.797963 0.669031
RightUpLeg -1.207920 8.146685 7.645023
RightLeg 1.864831 -0.000000 -0.000000
RightFoot -9.331081 -0.851411 -6.787720
RightToeBase 2.360078 -0.000000 -0.000000
LeftUpLeg -37.929849 1.708478 -9.645363
LeftLeg 20.419940 -0.000000 -0.000000
LeftFoot -5.797481 5.478309 -18.467208
LeftToeBase -13.411772 -0.000000 0.000000
Spine -3.560810 3.631781 1.211061
RightShoulder -17.230530 -10.051481 -29.249835
RightArm 19.558407 32.350798 40.225443
RightForeArm -14.174294 -0.000000 27.431920
RightHand 11.680894 -0.000000 5.939618
RightHandThumb1 -24.326973 -0.000000 -32.862282
LeftShoulder -23.673406 5.418553 29.418059
LeftArm 14.331249 -30.036851 -40.297008
LeftForeArm 16.926656 -0.000000 3.998553
LeftHand -0.308197 -0.000000 -7.232826
LeftHandThumb1 -26.253704 0.000000 33.147579
Head -1.305040 6.943885 -5.963609
422
root -4.471380 32.839430 -3.477428 5.960772 -13.949629 0.584646
RightUpLeg -1.136749 8.220991 7.752704
RightLeg 1.777269 -0.000000 -0.000000
RightFoot -9.289296 -0.736842 -6.857176
RightToeBase 2.307900 -0.000000 -0.000000
LeftUpLeg -37.729501 1.432735 -9.935208
LeftLeg 20.883920 -0.000000 -0.000000
LeftFoot -5.830614 5.294070 -18.593415
LeftToeBase -13.266502 -0.000000 0.000000
Spine -3.649855 3.772474 1.297508
RightShoulder -17.217411 -10.099218 -29.172303
RightArm 19.614683 32.279051 40.182522
RightForeArm -14.102425 -0.000000 27.343378
RightHand 11.640637 -0.000000 6.064738
RightHandThumb1 -24.326973 -0.000000 -32.862282
LeftShoulder -23.716498 5.475338 29.465615
LeftArm 14.292228 -30.145942 -40.261552
LeftForeArm 16.835050 -0.000000 4.079243
LeftHand -0.217503 -0.000000 -7.260344
LeftHandThumb1 -26.253704 0.000000 33.147579
Head -1.220222 6.893697 -5.948498
423
root -4.498394 32.830252 -3.468294 5.981786 -14.131872 0.498781
RightUpLeg -1.081474 8.349582 7.855116
RightLeg 1.718641 -0.000000 -0.000000
RightFoot -9.252080 -0.672036 -6.865620
RightToeBase 2.260484 -0.000000 -0.000000
LeftUpLeg -37.509327 1.194525 -10.214772
LeftLeg 21.393009 -0.000000 -0.000000
LeftFoot -5.759862 5.054956 -18.626062
LeftToeBase -13.513355 -0.000000 0.000000
Spine -3.733749 3.967834 1.394786
RightShoulder -17.210400 -10.136368 -29.160116
RightArm 19.587896 32.253022 40.218620
RightForeArm -14.140590 -0.000000 27.305406
RightHand 12.061202 -0.000000 5.767879
RightHandThumb1 -24.326973 -0.000000 -32.862282
LeftShoulder -23.731193 5.550665 29.460519
LeftArm 14.265407 -30.216548 -40.195421
LeftForeArm 16.703538 -0.000000 4.173368
LeftHand -0.224184 0.000000 -7.098481
LeftHandThumb1 -26.253704 0.000000 33.147579
Head -1.139047 6.963517 -5.921627
